<svg width="96" height="96" viewBox="0 0 96 96" fill="none" xmlns="http://www.w3.org/2000/svg">
<g filter="url(#filter0_i_2_132)">
<circle cx="33.6667" cy="40.3333" r="13.6667" fill="#666666"/>
<circle cx="66.125" cy="33.5" r="11.9583" fill="#666666"/>
<circle cx="78.0833" cy="43.75" r="10.25" fill="#666666"/>
<circle cx="44.7708" cy="27.5208" r="14.5208" fill="#666666"/>
<rect x="33.6667" y="33.5" width="44.4167" height="20.5" fill="#666666"/>
</g>
<g filter="url(#filter1_i_2_132)">
<ellipse cx="23.2" cy="50" rx="15.2" ry="16" fill="#DEDEDE"/>
<ellipse cx="59.3" cy="42" rx="13.3" ry="14" fill="#DEDEDE"/>
<ellipse cx="72.6" cy="54" rx="11.4" ry="12" fill="#DEDEDE"/>
<ellipse cx="35.55" cy="35" rx="16.15" ry="17" fill="#DEDEDE"/>
<rect x="23.2" y="42" width="49.4" height="24" fill="#DEDEDE"/>
</g>
<g filter="url(#filter2_i_2_132)">
<path d="M24 75L32 83M24.5 68.5L32.5 76.5M33.5 72L41.5 80M41.5 69.5L49.5 77.5M44.5 78L50 83.5M48.5 72L56.5 80M35 68.5L40.5 74M34.5 80L38 83.5M56.5 75.5L64.5 83.5M57.5 68.5L65.5 76.5M66 80L69.5 83.5M51.5 69.5L55 73M67 73.5L72.5 79M67 68.5L72.5 74" stroke="#EEEEEE" stroke-width="2" stroke-linecap="round"/>
</g>
<defs>
<filter id="filter0_i_2_132" x="18" y="11" width="70.3333" height="43" filterUnits="userSpaceOnUse" color-interpolation-filters="sRGB">
<feFlood flood-opacity="0" result="BackgroundImageFix"/>
<feBlend mode="normal" in="SourceGraphic" in2="BackgroundImageFix" result="shape"/>
<feColorMatrix in="SourceAlpha" type="matrix" values="0 0 0 0 0 0 0 0 0 0 0 0 0 0 0 0 0 0 127 0" result="hardAlpha"/>
<feOffset dx="-2" dy="-2"/>
<feGaussianBlur stdDeviation="2"/>
<feComposite in2="hardAlpha" operator="arithmetic" k2="-1" k3="1"/>
<feColorMatrix type="matrix" values="0 0 0 0 0 0 0 0 0 0 0 0 0 0 0 0 0 0 0.25 0"/>
<feBlend mode="normal" in2="shape" result="effect1_innerShadow_2_132"/>
</filter>
<filter id="filter1_i_2_132" x="6" y="16" width="78" height="50" filterUnits="userSpaceOnUse" color-interpolation-filters="sRGB">
<feFlood flood-opacity="0" result="BackgroundImageFix"/>
<feBlend mode="normal" in="SourceGraphic" in2="BackgroundImageFix" result="shape"/>
<feColorMatrix in="SourceAlpha" type="matrix" values="0 0 0 0 0 0 0 0 0 0 0 0 0 0 0 0 0 0 127 0" result="hardAlpha"/>
<feOffset dx="-2" dy="-2"/>
<feGaussianBlur stdDeviation="2"/>
<feComposite in2="hardAlpha" operator="arithmetic" k2="-1" k3="1"/>
<feColorMatrix type="matrix" values="0 0 0 0 0 0 0 0 0 0 0 0 0 0 0 0 0 0 0.25 0"/>
<feBlend mode="normal" in2="shape" result="effect1_innerShadow_2_132"/>
</filter>
<filter id="filter2_i_2_132" x="23" y="67.4" width="50.5" height="17.1" filterUnits="userSpaceOnUse" color-interpolation-filters="sRGB">
<feFlood flood-opacity="0" result="BackgroundImageFix"/>
<feBlend mode="normal" in="SourceGraphic" in2="BackgroundImageFix" result="shape"/>
<feColorMatrix in="SourceAlpha" type="matrix" values="0 0 0 0 0 0 0 0 0 0 0 0 0 0 0 0 0 0 127 0" result="hardAlpha"/>
<feOffset dy="-0.1"/>
<feGaussianBlur stdDeviation="0.5"/>
<feComposite in2="hardAlpha" operator="arithmetic" k2="-1" k3="1"/>
<feColorMatrix type="matrix" values="0 0 0 0 0 0 0 0 0 0 0 0 0 0 0 0 0 0 0.25 0"/>
<feBlend mode="normal" in2="shape" result="effect1_innerShadow_2_132"/>
</filter>
</defs>
</svg>
