<svg width="96" height="96" viewBox="0 0 96 96" fill="none" xmlns="http://www.w3.org/2000/svg">
<g filter="url(#filter0_i_2_142)">
<circle cx="59.3" cy="34.75" r="13.1944" fill="#FFD600"/>
</g>
<g filter="url(#filter1_i_2_142)">
<path d="M59.3 11V18.9167M76.1229 17.9271L71.5049 23.5347M75.1333 34.75H83.05M76.1229 51.5729L70.5153 45.9653M59.3 50.5833V58.5M42.4771 51.5729L48.0847 45.9653M35.55 34.75H43.4667M42.4771 17.9271L48.0847 23.5347" stroke="#FFD600" stroke-width="2" stroke-linecap="round"/>
</g>
<g filter="url(#filter2_i_2_142)">
<circle cx="23.2" cy="52.8" r="15.2" fill="#DEDEDE"/>
<circle cx="59.3" cy="45.2" r="13.3" fill="#DEDEDE"/>
<circle cx="72.6" cy="56.6" r="11.4" fill="#DEDEDE"/>
<circle cx="35.55" cy="38.55" r="16.15" fill="#DEDEDE"/>
<rect x="23.2" y="45.2" width="49.4" height="22.8" fill="#DEDEDE"/>
</g>
<g filter="url(#filter3_i_2_142)">
<path d="M22 76.5L30 84.5M22.5 70L30.5 78M31.5 73.5L39.5 81.5M39.5 71L47.5 79M42.5 79.5L48 85M46.5 73.5L54.5 81.5M33 70L38.5 75.5M32.5 81.5L36 85M54.5 77L62.5 85M55.5 70L63.5 78M64 81.5L67.5 85M49.5 71L53 74.5M65 75L70.5 80.5M65 70L70.5 75.5" stroke="#EEEEEE" stroke-width="2" stroke-linecap="round"/>
</g>
<defs>
<filter id="filter0_i_2_142" x="44.1056" y="19.5555" width="28.3889" height="28.3889" filterUnits="userSpaceOnUse" color-interpolation-filters="sRGB">
<feFlood flood-opacity="0" result="BackgroundImageFix"/>
<feBlend mode="normal" in="SourceGraphic" in2="BackgroundImageFix" result="shape"/>
<feColorMatrix in="SourceAlpha" type="matrix" values="0 0 0 0 0 0 0 0 0 0 0 0 0 0 0 0 0 0 127 0" result="hardAlpha"/>
<feOffset dx="-2" dy="-2"/>
<feGaussianBlur stdDeviation="2"/>
<feComposite in2="hardAlpha" operator="arithmetic" k2="-1" k3="1"/>
<feColorMatrix type="matrix" values="0 0 0 0 0 0 0 0 0 0 0 0 0 0 0 0 0 0 0.25 0"/>
<feBlend mode="normal" in2="shape" result="effect1_innerShadow_2_142"/>
</filter>
<filter id="filter1_i_2_142" x="34.05" y="9.5" width="50" height="50" filterUnits="userSpaceOnUse" color-interpolation-filters="sRGB">
<feFlood flood-opacity="0" result="BackgroundImageFix"/>
<feBlend mode="normal" in="SourceGraphic" in2="BackgroundImageFix" result="shape"/>
<feColorMatrix in="SourceAlpha" type="matrix" values="0 0 0 0 0 0 0 0 0 0 0 0 0 0 0 0 0 0 127 0" result="hardAlpha"/>
<feOffset dx="-0.5" dy="-0.5"/>
<feGaussianBlur stdDeviation="0.5"/>
<feComposite in2="hardAlpha" operator="arithmetic" k2="-1" k3="1"/>
<feColorMatrix type="matrix" values="0 0 0 0 0 0 0 0 0 0 0 0 0 0 0 0 0 0 0.25 0"/>
<feBlend mode="normal" in2="shape" result="effect1_innerShadow_2_142"/>
</filter>
<filter id="filter2_i_2_142" x="6" y="20.4" width="78" height="47.6" filterUnits="userSpaceOnUse" color-interpolation-filters="sRGB">
<feFlood flood-opacity="0" result="BackgroundImageFix"/>
<feBlend mode="normal" in="SourceGraphic" in2="BackgroundImageFix" result="shape"/>
<feColorMatrix in="SourceAlpha" type="matrix" values="0 0 0 0 0 0 0 0 0 0 0 0 0 0 0 0 0 0 127 0" result="hardAlpha"/>
<feOffset dx="-2" dy="-2"/>
<feGaussianBlur stdDeviation="2"/>
<feComposite in2="hardAlpha" operator="arithmetic" k2="-1" k3="1"/>
<feColorMatrix type="matrix" values="0 0 0 0 0 0 0 0 0 0 0 0 0 0 0 0 0 0 0.25 0"/>
<feBlend mode="normal" in2="shape" result="effect1_innerShadow_2_142"/>
</filter>
<filter id="filter3_i_2_142" x="21" y="68.9" width="50.5" height="17.1" filterUnits="userSpaceOnUse" color-interpolation-filters="sRGB">
<feFlood flood-opacity="0" result="BackgroundImageFix"/>
<feBlend mode="normal" in="SourceGraphic" in2="BackgroundImageFix" result="shape"/>
<feColorMatrix in="SourceAlpha" type="matrix" values="0 0 0 0 0 0 0 0 0 0 0 0 0 0 0 0 0 0 127 0" result="hardAlpha"/>
<feOffset dy="-0.1"/>
<feGaussianBlur stdDeviation="0.5"/>
<feComposite in2="hardAlpha" operator="arithmetic" k2="-1" k3="1"/>
<feColorMatrix type="matrix" values="0 0 0 0 0 0 0 0 0 0 0 0 0 0 0 0 0 0 0.25 0"/>
<feBlend mode="normal" in2="shape" result="effect1_innerShadow_2_142"/>
</filter>
</defs>
</svg>
