<svg width="96" height="96" viewBox="0 0 96 96" fill="none" xmlns="http://www.w3.org/2000/svg">
<g filter="url(#filter0_i_2_92)">
<path d="M48 14V21.65M48 82V74.35M24.2 24.2L30.8824 30.8824M72.225 72.225L65 65M24.2 72.225L31.425 65M72.225 24.2L65 31.425M41.2 14.85L48 21.65M48 21.65L54.8 14.85M48 21.65V30.5641M31 20.8L30.8824 30.8824M30.8824 30.8824L20.8 30.944M30.8824 30.8824L35.7949 35.7949M65 20.8V31.425M65 31.425H75.2M65 31.425L60.6301 35.7949M75.2 65H65M65 65V75.2M65 65L60.2051 60.2051M41.2 81.15L48 74.35M48 74.35L54.8 81.15M48 74.35V65.4359M31.425 65V75.2M31.425 65H20.8M31.425 65L36.2199 60.2051M14 48H21.65M82 48H74.35M81.15 41.2L74.35 48M74.35 48L81.15 54.8M74.35 48H65.4359M14.85 41.2L21.65 48M21.65 48L14.85 54.8M21.65 48H30.5641M48 30.5641L35.7949 35.7949M48 30.5641V65.4359M48 30.5641L60.6301 35.7949M35.7949 35.7949L30.5641 48M35.7949 35.7949L60.2051 60.2051M30.5641 48L36.2199 60.2051M30.5641 48H65.4359M36.2199 60.2051L48 65.4359M36.2199 60.2051L60.6301 35.7949M48 65.4359L60.2051 60.2051M60.2051 60.2051L65.4359 48M65.4359 48L60.6301 35.7949" stroke="white" stroke-width="4" stroke-linecap="round"/>
</g>
<defs>
<filter id="filter0_i_2_92" x="12" y="11.5" width="72" height="72.5" filterUnits="userSpaceOnUse" color-interpolation-filters="sRGB">
<feFlood flood-opacity="0" result="BackgroundImageFix"/>
<feBlend mode="normal" in="SourceGraphic" in2="BackgroundImageFix" result="shape"/>
<feColorMatrix in="SourceAlpha" type="matrix" values="0 0 0 0 0 0 0 0 0 0 0 0 0 0 0 0 0 0 127 0" result="hardAlpha"/>
<feOffset dy="-0.5"/>
<feGaussianBlur stdDeviation="1.5"/>
<feComposite in2="hardAlpha" operator="arithmetic" k2="-1" k3="1"/>
<feColorMatrix type="matrix" values="0 0 0 0 0 0 0 0 0 0 0 0 0 0 0 0 0 0 0.25 0"/>
<feBlend mode="normal" in2="shape" result="effect1_innerShadow_2_92"/>
</filter>
</defs>
</svg>
