<svg xmlns="http://www.w3.org/2000/svg" width="22" height="30" fill="none" xmlns:v="https://vecta.io/nano"><path d="M10.509.04c.162-.092.402-.024.458.167.06.157-.044.301-.129.423-.604.869-1.004 1.878-1.194 2.922-.115.05-.148.172-.112.287l.171.057c1.172-.104 2.36-.083 3.514.167a10.9 10.9 0 0 1 5.568 3.048 11.22 11.22 0 0 1 2.985 5.616c.473 2.29.209 4.727-.738 6.859-2.007 4.354-5.391 8.037-9.532 10.372-.134.063-.326.066-.418-.069-.108-.141-.063-.342.043-.471.559-.791.948-1.7 1.16-2.648.041-.197.097-.396.08-.598-.068-.09-.181-.063-.277-.06-2.01.204-4.078-.16-5.894-1.061-1.945-.951-3.596-2.506-4.687-4.397a11.18 11.18 0 0 1-1.506-5.785c.007-1.854.505-3.693 1.383-5.317C3.428 5.571 6.636 2.211 10.509.04zm-.113 10.64a4.31 4.31 0 0 0-2.968 1.891c-.453.697-.728 1.526-.722 2.365a4.33 4.33 0 0 0 1.172 3.059 4.26 4.26 0 0 0 2.57 1.334c.991.133 2.026-.103 2.866-.655a4.35 4.35 0 0 0 1.794-2.401 4.41 4.41 0 0 0-1.533-4.76 4.24 4.24 0 0 0-3.18-.832z" fill="#000"/></svg>